<svg width="100" height="13" viewBox="0 0 100 13" fill="none" xmlns="http://www.w3.org/2000/svg">
<path d="M85.4323 5.15856V12.9924H87.944V7.76983H97.1295V12.9924H99.6412V5.15856H85.4323ZM87.657 2.61884H97.3448C98.7083 2.36844 99.677 1.15223 99.9641 0.00756836H85.0377C85.3247 1.15223 86.3294 2.33267 87.657 2.61884ZM77.7897 12.9924C79.0456 12.4558 79.7273 11.5258 80.0143 10.4526H68.7119V0.0433392H66.1643V12.9924H77.7897V12.9924ZM47.3269 2.58307H56.2971C57.6606 2.18959 58.7729 1.15223 59.0599 0.0433392H44.8511V7.69829H56.4765V10.3811H47.3628C45.9275 10.7746 44.7076 11.7404 44.0976 12.9924H58.9882V5.15856H47.3628L47.3269 2.58307ZM25.2243 2.61884H34.9121C36.2756 2.36844 37.2802 1.15223 37.5314 0.00756836H22.5691C22.8561 1.15223 23.8608 2.33267 25.2243 2.61884ZM25.2243 7.73406H34.9121C36.2756 7.48367 37.2802 6.26746 37.5314 5.12279H22.5691C22.8561 6.26746 23.8608 7.4479 25.2243 7.73406ZM25.2243 12.9924H34.9121C36.2756 12.742 37.2802 11.5258 37.5314 10.3811H22.5691C22.8561 11.5258 23.8608 12.742 25.2243 12.9924Z" fill="black"/>
<path d="M0 0.0437054C0.287047 1.18837 1.29171 2.33304 2.6193 2.6192H6.70972L6.92501 2.69075V12.957H9.47255V2.69075L9.68784 2.6192H13.7783C15.1417 2.2615 16.1105 1.18837 16.3976 0.0437054V0.00793457L0 0.0437054Z" fill="black"/>
</svg>
